<?xml version="1.0" encoding="UTF-8" standalone="no"?><!DOCTYPE svg PUBLIC "-//W3C//DTD SVG 1.1//EN" "http://www.w3.org/Graphics/SVG/1.1/DTD/svg11.dtd"><svg width="100%" height="100%" viewBox="0 0 700 546" version="1.1" xmlns="http://www.w3.org/2000/svg" xmlns:xlink="http://www.w3.org/1999/xlink" xml:space="preserve" xmlns:serif="http://www.serif.com/" style="fill-rule:evenodd;clip-rule:evenodd;stroke-linejoin:round;stroke-miterlimit:2;"><rect id="Artboard2" x="0.535" y="0.489" width="696.196" height="543.372" style="fill:none;"/><g><path d="M470.414,183.892c-1.782,-2.822 -3.752,-4.533 -3.722,-6.176c0.224,-7.493 -5.75,-16.561 4.817,-21.659c1.658,-0.791 4.94,-1.589 5.478,-0.888c5.724,7.774 -2.477,13.929 -2.942,21.079c-0.148,2.284 -2.036,4.449 -3.594,7.624l-0.037,0.02Zm-242.932,283.879c24.15,-21.558 -1.009,-14.26 -7.255,-18.296c27.219,-12.382 30.244,15.378 46.146,19.997c-13.774,5.518 -21.747,-11.081 -38.891,-1.701m7.49,-129.405c-13.878,12.8 -14.814,13.854 -25.614,4.541c-10.275,-8.891 -22.372,-21.013 -18.738,-34.589c3.744,-13.974 19.896,-11.458 33.324,-12.668c-6.87,9.279 -22.451,9.98 -20.21,21.25c2.186,10.917 14.493,0.677 21.782,3.933c-5.231,4.72 -13.537,8.398 -9.227,16.635c3.941,7.584 11.041,1.428 18.646,0.919l0.037,-0.021Zm203.919,-114.265c-27.788,-19.25 -30.466,-45.292 -31.662,-71.931c10.961,22.663 42.595,36.349 31.662,71.931m-220.723,-39.9c36.525,7.005 72.58,9.444 106.663,21.366c-10.498,1.232 -15.048,21.496 -24.029,13.119c-18.862,-17.587 -40.958,-13.595 -62.122,-14.481c-14.08,-0.623 -20.165,-5.562 -20.512,-20.004m73.747,-1.211c18.101,-11.164 33.324,-10.802 49.036,-10.764c16.14,0.035 23.033,18.2 42.016,16.489c12.239,-1.113 25.277,14.543 32.106,29.539c-38.89,-16.29 -79.44,-25.427 -123.137,-35.228l-0.021,-0.036Zm107.384,2.878c-17.846,-12.563 -36.274,-21.067 -42.891,-43.405c-3.209,-10.867 -11.036,-20.421 -16.891,-30.465c-11.987,-20.411 -31.652,-33.909 -46.403,-51.757c43.772,33.772 105.619,52.09 106.205,125.663l-0.02,-0.036Zm-153.131,-96.142c-22.158,-6.975 -38.324,-9.77 -54.875,-10.196c-3.849,-0.125 -9.886,-1.074 -11.127,-3.531c-10.988,-21.692 -30.808,-36.059 -49.747,-57.429c50.874,6.663 85.765,29.179 115.785,71.136l-0.036,0.02Zm-18.649,-54.874c14.577,4.983 28.932,10.76 43.737,14.706c12.669,3.38 5.775,8.798 2.839,14.28c33.433,22.477 61.009,49.835 75.999,89.313c-65.867,-22.988 -95.52,-85.672 -145.618,-125.827l23.043,7.528Zm140.2,307.685c0.815,-1.608 1.631,-3.216 2.446,-4.824c0.602,0.474 1.204,0.948 1.863,1.437c-1.531,1.103 -3.062,2.205 -4.613,3.271c7.122,4.403 -18.207,32.27 15.581,17.284c-2.59,8.301 -4.545,14.76 -6.706,21.193c-0.957,2.883 -3.211,4.824 -6.239,3.949c-1.192,-0.333 -1.876,-2.817 -2.57,-4.387c-6.536,-14.731 -14.265,-28.693 -26.612,-39.478c-10.476,-9.161 -6.948,-26.743 -16.936,-33.597c-8.324,-5.686 -8.051,-9.188 -4.136,-16.753c-6.82,0.545 -12.394,1.009 -24.716,1.978c17.309,-6.46 10.468,-15.709 12.013,-22.894c-13.618,4.522 -19.008,-11.908 -30.79,-12.104c10.197,-7.281 14.673,-25.302 32.459,-17.681c-2.607,7.593 -16.34,10.553 -12.184,19.451c5.173,10.955 17.783,0.065 26.803,4.355c-0.909,5.344 -11.142,6.282 -7.907,11.681c6.717,11.233 17.758,-0.829 26.298,3.205c-5.169,7.459 -20.408,12.416 -14.147,21.992c5.349,8.13 16.498,-1.027 24.229,-4.621c-0.285,11.88 -29.889,24.698 0.824,36.751c0.361,0.131 -0.263,2.588 -0.307,3.952c-0.797,17.334 8.176,9.07 15.27,5.788l0.077,0.052Zm-258.133,-174.028c-10.795,1.639 -25.17,5.582 -31.001,-3.232c-11.903,-17.971 -31.157,-24.717 -46.32,-37.357c-8.235,-6.885 -18.995,-12.394 -15.784,-26.21c4.914,-15.208 18.51,-14.934 30.45,-16.07c20.333,-1.946 39.585,5.136 59.213,8.897c13.015,2.468 21.83,9.025 29.087,20.623c16.097,25.747 32.472,51.48 63.264,63.248c9.871,3.762 12.178,14.133 13.135,26.604c-14.802,-9.879 -26.941,-19.106 -40.072,-26.53c-18.793,-10.594 -32.693,-23.708 -38.333,-45.927c-3.847,-15.051 -15.631,-25.771 -30.235,-32.413c-4.046,-1.832 -8.966,-7.333 -12.328,-1.419c-3.399,5.934 3.458,7.999 7.53,9.961c16.94,8.242 27.993,20.378 29.621,41.081c-30.438,-19.286 -55.085,-45.522 -92.085,-48.193c-3.215,0.999 -7.302,1.725 -7.13,5.933c0.205,4.86 4.884,3.656 7.792,3.978c16.58,1.749 31.301,7.75 44.176,18.284c16.935,11.116 33.87,22.231 50.979,33.487c-7.225,8.14 -14.658,6.496 -21.979,5.219l0.02,0.036Zm81.034,-46.314c-32.818,4.49 -34.568,4.185 -51.688,-38.731c8.098,1.891 16.103,3.787 24.108,5.683c37.078,1.623 75.112,-0.402 107.604,28.633c-28.672,1.577 -54.366,3.006 -80.081,4.399l0.057,0.016Zm19.129,8.73c16.699,-1.858 33.3,-5.67 55.282,-2.231c-18.594,4.266 -32.411,7.417 -46.228,10.568c-3.215,3.63 -10.854,1.958 -11.364,9.708c12.094,2.7 22.303,-5.832 33.751,-4.872c30.946,-7.978 60.584,-7.757 91.138,14.956c-14.59,1.865 -25.12,3.211 -35.707,4.54c-54.365,12.765 -93.649,7.315 -126.724,-30.814c14.351,-0.678 27.12,-1.276 39.832,-1.891l0.02,0.036Zm-15.548,104.34c-18.723,0.559 -37.673,2.921 -60.403,-6.935c25.522,-5.637 45.529,-12.996 67.085,-12.857c29.744,-2.9 59.38,-4.973 92.736,6.593c-35.135,13.784 -67.318,13.036 -99.418,13.199Zm-30.939,-25.941l0.175,0.141c-35.27,14.817 -53.859,12.814 -70.808,-8.338c-4.1,-5.151 -10.024,-11.33 -6.971,-18.217c3.152,-7.135 11.022,-2.34 16.761,-2.85c6.743,-0.597 13.607,0.125 20.408,0.308c25.026,-2.105 46.046,6.755 64.708,22.971c-4.401,6.022 -10.34,4.396 -15.462,5.323c-2.801,1.818 -5.659,3.621 -8.795,0.606l-0.016,0.056Zm-45.503,-175.627l0.06,-0.656c27.91,1.482 35.902,25.581 51.445,42.456c-8.858,5.33 -14.886,1.171 -21.108,-0.87c-1.664,-0.831 -3.308,-1.626 -4.973,-2.457l0.289,0.172c-24.185,1.391 -34.939,-14.118 -42.481,-33.687c-2.21,-7.651 0.225,-14.955 7.211,-16.647c4.094,-0.968 8.266,6.007 9.5,11.673l0.057,0.016Zm139.782,385.076c-0.231,0.608 -0.446,1.16 -0.677,1.769c0.345,-0.577 0.673,-1.097 1.018,-1.674c-1.887,-5.298 6.132,-13.216 0.309,-15.146c-19.2,-6.395 -15.6,-25.884 -24.733,-39.198c4.35,12.041 11.858,10.342 19.814,6.382c1.979,6.394 -7.196,12.094 -1.795,17.515c5.657,5.708 11.196,-2.964 17.74,-2.301c-3.34,7.48 -8.701,14.09 -3.689,23.318c3.349,6.195 -4.124,7.109 -7.91,9.387l-0.077,-0.052Zm21.895,-12.155c0.707,-0.781 1.471,-1.547 2.179,-2.328l-2.463,2.249c1.608,9.808 1.425,21.87 17.398,11.429c-0.227,8.929 -10.017,14.641 -3.193,22.416c2.572,2.951 1.689,4.693 -0.847,6.218c-2.863,1.71 -5.944,0.147 -6.934,-2.117c-5.208,-12.036 -17.439,-23.124 -6.12,-37.83l-0.02,-0.037Zm172.601,-101.771c2.203,1.532 4.318,3.162 6.553,4.58c20.783,13.107 17.455,27.564 10.085,49.275c-7.47,21.958 -21.537,37.305 -33.217,55.275c-1.679,2.621 -6.639,4.174 -3.213,7.79c1.932,2.068 6.616,3.589 9.091,2.719c5.023,-1.78 10.084,-4.681 13.894,-8.36c25.017,-24.008 38.474,-54.604 49.222,-86.782c1.882,-5.653 -0.276,-10.415 -3.636,-13.065c-13.727,-10.772 -19.142,-23.599 -15.425,-41.098c0.956,-4.413 -3.632,-10.006 -5.676,-15.072c-19.305,1.223 -37.143,9.798 -56.791,10.497c-12.536,0.42 -45.531,-12.881 -46.828,-25.447c-2.13,-20.659 -10.722,-10.362 -18.966,-6.574c-9.293,19.064 -1.077,31.938 20.023,30.421c5.801,-0.401 3.879,4.079 5.769,6.075c6.006,6.324 -1.608,3.68 -3.257,4.658c-4.963,2.99 -0.961,5.421 0.29,8.064c6.835,3.13 10.838,-4.532 16.848,-4.477c-0.057,-0.781 -0.135,-1.598 -0.157,-2.399c0.164,0.29 0.441,0.612 0.399,0.875c-0.086,0.527 -0.399,0.99 -0.598,1.485c1.197,5.687 -1.491,15.765 5.221,16.047c32.552,1.4 8.802,17.136 7.541,27.031c-0.797,1.98 0.73,6.046 -2.657,5.468c-2.804,-0.476 -2.542,-3.828 -0.853,-6.263c-5.443,-13.386 -17.435,-14.039 -30.416,-15.09c3.226,-7.511 9.39,-14.479 4.706,-23.126c-10.657,6.296 -13.517,-13.282 -24.074,-7.234c4.783,-21.974 -14.686,-7.552 -20.357,-13.538c3.64,-2.962 10.661,-8.069 10.375,-8.577c-9.08,-14.492 6.57,-13.798 11.553,-19.382c-3.221,-0.623 -6.443,-1.246 -9.7,-1.849c4.531,-5.281 0.886,-16.667 9.072,-17.504c8.78,-0.885 24.234,-4.528 26.042,3.684c2.946,13.454 7.184,18.001 20.277,23.151c15.49,6.094 33.538,3.236 39.387,-12.69c3.596,-9.825 5.847,-21.952 19.99,-23.422c6.366,-0.672 6.648,-6.619 2.344,-7.635c-19.541,-4.624 -17.439,-19.729 -18.851,-33.857c-0.285,-2.709 -2.025,-12.921 -7.238,-5.964c-7.577,10.061 -8.017,0.12 -10.929,-2.161c-3.493,-2.717 -5.877,-7.114 -2.739,-10.796c6.4,-7.483 4.967,3.465 8.518,4.333c7.179,1.788 5.392,-7.489 10.585,-7.356c-0.746,-1.493 -1.508,-2.928 -2.254,-4.421c0.89,-0.119 1.78,-0.238 2.685,-0.414c-0.293,1.601 -0.607,3.165 -0.901,4.765c2.961,9.237 12.416,15.147 10.724,27.246c-2.382,16.985 13.518,20.074 24.413,24.55c12.401,5.109 12.297,-9.326 17.72,-15.063c3.047,-3.248 1.379,-9.77 7.653,-11.538c-1.892,7.333 6.465,7.309 8.979,13.21c8.808,20.625 -11.161,33.989 -9.672,51.9c-7.73,0.628 -5.971,13.843 -16.761,11.843c-4.688,-0.848 -2.256,6.773 -4.254,10.1c9.595,12.097 12.855,27.718 26.189,38.472c14.23,11.493 6.829,30.351 6.93,46.223c0.041,4.569 -4.233,9.036 2.73,17.737c25.829,-44.795 6.399,-81.29 -15.024,-117.331c10.415,-2.907 14.181,4.536 14.489,9.577c1.168,18.953 17.193,24.554 28.724,33.55c22.983,17.942 26.751,35.142 14.305,62.442c-3.277,7.253 -15.214,17.81 -7.015,22.85c9.795,6.004 17.358,-6.966 22.254,-15.419c11.802,-20.383 6.894,-41.389 -0.883,-61.543c-4.094,-10.654 -11.042,-20.178 -17.1,-30.921c10.711,2.284 19.559,6.862 24.6,18.178c4.939,11.135 13.315,20.475 13.538,33.934c0.211,10.979 -4.351,22.4 1.766,35.454c12.011,-13.565 9.006,-28.565 10.374,-42.682c1.394,-14.323 -18.088,-20.032 -12.91,-37.062c1.864,2.967 3.099,4.901 4.276,6.82c3.492,5.685 5.514,15.547 13.428,13.38c6.388,-1.736 6.62,-11.673 6.709,-18.133c0.082,-8.083 -1.25,-12.736 10.496,-14.385c13.971,-1.946 15.597,-17.979 13.1,-27.668c-6.507,-25.366 -13.572,-51.47 -41.086,-64.465c-7.375,-3.495 -3.444,-23.075 -20.259,-15.316c0.327,-2.05 0.097,-4.408 1.099,-6.025c2.739,-4.558 6.658,-5.668 12.288,-5.015c26.366,3.071 52.512,6.6 76.294,19.595c3.529,1.932 7.367,3.308 11.136,4.818c4.512,1.809 8.929,0.227 10.877,-3.359c3.093,-5.714 -2.966,-6.363 -6.186,-8.087c-31.142,-16.546 -63.651,-27.203 -99.596,-24.442c-6.784,0.524 -12.052,2.634 -15.223,8.632c-5.215,9.924 -13.661,-5.309 -19.05,2.609c-5.217,-3.994 1.304,-8.293 -0.372,-12.705c-3.529,-9.06 3.214,-9.657 9.443,-10.825c30.944,-5.777 61.553,-14.522 93.503,-10.965c5.61,0.616 11.5,3.513 12.351,-5.242c0.757,-7.65 -6.617,-5.883 -10.118,-6.492c-36.183,-6.146 -71.05,-0.453 -104.686,13.443c-6.289,2.589 -11.415,6.054 -13.22,14.39c-3.49,16.461 -25.654,27.715 -35.895,16.508c-12.054,-13.149 -28.651,-15.606 -41.813,-20.286c-13.524,-4.812 -34.428,-11.345 -50.364,3.572c-7.612,7.115 -14.297,6.627 -22.348,-2.562c-40.847,-46.567 -90.464,-80.439 -149.921,-99.1c-32.769,-10.271 -66.004,-17.888 -100.568,-18.871c-15.228,-0.454 -29.914,0.986 -43.418,8.935c-20.463,12.065 -23.595,33.826 -7.399,51.097c3.252,3.477 5.485,7.862 8.202,11.831c3.921,-0.681 5.782,1.092 5.9,4.949c-2.268,-0.205 -4.5,-0.429 -6.767,-0.634c-23.06,-5.605 -45.909,-11.854 -69.75,-2.812c-26.073,9.918 -32.089,33.353 -12.403,53.249c16.443,16.607 33.193,32.993 51.103,47.959c10.708,8.981 14.922,21.29 21.226,32.469c7.592,13.465 19.286,20.122 32.561,25.934c39.37,17.312 80.439,19.65 125.67,13.423c-14.488,8.408 -23.632,17.726 -39.544,16.653c-10.167,-0.725 -13.759,17.421 -26.841,17.718c7.976,11.431 -1.61,14.875 -8.983,18.172c-10.239,4.577 -17.403,12.826 -25.876,19.517c-13.736,10.759 -12.583,19.675 2.494,27.581c4.907,0.39 17.894,8.661 18.526,11.988c2.691,13.933 24.082,14.882 22.154,31.994c1.972,-0.49 4.29,-1.893 5.832,-1.28c5.27,2.051 2.833,6.296 0.829,8.765c-0.739,0.895 -1.833,7.778 -7.268,2.041c-15.628,-16.348 -31.05,-32.67 -39.946,-53.962c-8.761,11.78 -22.782,19.064 -28.553,33.177c-0.283,0.685 -13.959,15.285 5.523,10.135c4.364,-1.169 8.872,10.305 6.781,18.133c-9.544,35.756 9.227,81.855 40.027,103.903c6.964,4.97 17.161,8.548 19.859,20.373c1.073,4.704 12.321,16.252 17.105,-1.561c2.688,-10.078 14.745,-9.989 21.608,-17.159c10.908,-11.365 21.206,-26.355 39.238,-29.922c4.305,-0.848 8.229,-4.831 11.885,-7.849c11.938,-9.793 17.097,-25.33 37.678,-28.277c10.872,-1.586 24.801,-21.59 20.469,-41.151c-8.554,-0.917 -22.544,5.489 -17.734,-13.296c-12.825,0.583 -10.47,-28.919 -32.4,-13.349c26.382,-20.568 -16.543,-16.359 -8.492,-31.517c0.867,-1.685 -11.811,4.842 -18.883,3.328c3.757,-6.232 16.545,-9.425 10.808,-17.479c-5.48,-7.768 -12.442,4.911 -20.051,4.227c3.003,-7.146 14.863,-8.763 12.065,-21.105c-9.257,1.823 -18.44,3.605 -27.014,5.282c4.037,-8.111 20.812,-8.052 17.529,-18.541c-3.091,-9.977 -13.443,2.796 -20.135,0.686c3.303,-8.99 23.529,-7.814 13.929,-24.501c-9.896,1.706 -19.793,3.412 -32.446,5.572c20.594,-14.037 31.373,-15.763 32.336,-5.174c7.144,-1.158 21.006,-0.412 20.126,0.658c-8.945,11.453 15.724,14.907 5.598,26.979c-2.009,2.376 10.678,14.356 11.49,22.413c1.924,19.531 21.493,25.478 29.44,41.183c5.565,10.973 14.161,24.351 23.625,34.943c9.363,-8.676 17.907,18.269 28.807,-0.745c-20.084,22.661 -33.375,49.481 -62.662,60.063c-2.988,1.063 -11.082,1.13 -8.789,8.591c2.182,7.093 6.682,3.79 11.497,2.319c24.085,-7.506 46.925,-16.797 60.376,-40.023c4.912,-8.51 11.366,-14.541 19.456,-20.298c11.603,-8.265 21.536,-20.849 23.283,-34.463c3.994,-31.431 29.145,-51.639 38.562,-79.814c0.122,-3.178 0.259,-6.412 0.381,-9.59c4.492,2.538 7.001,5.715 3.808,10.911l-0.233,0.18Z" style="fill-rule:nonzero;"/><path d="M491.773,230.254c-7.777,-1.068 -9.947,-9.411 -15.036,-14.195c-2.231,-2.09 -1.4,-6.386 1.164,-6.588c8.414,-0.774 13.207,5.182 17.217,11.531c2.166,3.418 0.687,6.309 -3.381,9.273l0.036,-0.021Zm-9.286,28.579c1.963,-3.307 -0.433,-10.949 4.255,-10.1c10.79,2 9.067,-11.236 16.761,-11.843c-1.489,-17.911 18.443,-31.255 9.672,-51.9c-2.514,-5.901 -10.871,-5.877 -8.979,-13.21c-6.31,1.788 -4.606,8.289 -7.653,11.538c-5.423,5.737 -5.32,20.172 -17.72,15.062c-10.895,-4.476 -26.811,-7.508 -24.414,-24.549c1.692,-12.099 -7.763,-18.009 -10.723,-27.246l0.506,0.049c-5.177,-0.189 -3.37,9.124 -10.585,7.356c-3.551,-0.868 -2.119,-11.816 -8.518,-4.333c-3.138,3.683 -0.754,8.079 2.739,10.797c2.949,2.259 3.388,12.2 10.929,2.16c5.249,-6.978 7.01,3.271 7.237,5.965c1.377,14.148 -0.725,29.253 18.851,33.856c4.305,1.017 4.023,6.964 -2.343,7.635c-14.18,1.49 -16.43,13.618 -19.99,23.422c-5.849,15.926 -23.897,18.784 -39.387,12.69c-13.036,-5.134 -17.331,-9.697 -20.277,-23.151c-1.793,-8.269 -17.262,-4.569 -26.042,-3.684c-8.15,0.817 -4.541,12.223 -9.072,17.505c3.221,0.623 6.479,1.225 9.7,1.848l-0.341,-0.095c8.281,-3.808 16.857,-14.048 18.966,6.574c1.298,12.567 34.293,25.867 46.828,25.448c19.649,-0.699 37.487,-9.274 56.792,-10.497c0.932,-0.383 1.844,-0.801 2.752,-1.313l0.056,0.016Z" style="fill:#e7c259;fill-rule:nonzero;"/><path d="M35.748,101.608c37,2.672 61.61,28.928 92.085,48.193c-1.648,-20.739 -12.68,-32.839 -29.621,-41.081c-4.072,-1.961 -10.928,-4.026 -7.53,-9.961c3.362,-5.913 8.282,-0.412 12.328,1.42c14.547,6.626 26.388,17.361 30.235,32.412c5.656,22.163 19.576,35.313 38.333,45.927c13.131,7.424 25.25,16.616 40.072,26.53c-0.977,-12.507 -3.264,-22.841 -13.135,-26.603c-30.771,-11.732 -47.204,-37.481 -63.264,-63.249c-7.277,-11.634 -16.072,-18.155 -29.087,-20.622c-19.628,-3.761 -38.88,-10.843 -59.213,-8.897c-11.94,1.135 -25.536,0.861 -30.45,16.069c6.402,-5.953 12.842,-7.002 19.232,-0.081l0.015,-0.057Z" style="fill:#f0e9d2;fill-rule:nonzero;"/><path d="M227.519,34.852c-7.681,-2.509 -15.362,-5.018 -23.043,-7.527c50.155,40.17 79.771,102.874 145.617,125.826c-14.989,-39.478 -42.544,-66.8 -75.999,-89.313c-14.968,-10.597 -37.761,-8.604 -46.595,-29.022l0.02,0.036Z" style="fill:#f0e9d2;fill-rule:nonzero;"/><path d="M247.278,281.297c9.62,16.723 -10.606,15.547 -13.929,24.5c6.711,2.147 17.007,-10.642 20.134,-0.686c3.268,10.547 -13.528,10.451 -17.528,18.542c8.573,-1.677 17.7,-3.475 27.013,-5.283c2.777,12.306 -9.082,13.923 -12.064,21.106c7.609,0.684 14.534,-11.975 20.051,-4.227c5.701,8.074 -7.052,11.247 -10.809,17.479c7.072,1.513 19.787,-5.034 18.883,-3.329c-8.03,15.195 34.895,10.986 8.492,31.518c21.873,-15.586 19.575,13.932 32.401,13.349c-4.811,18.785 9.18,12.378 17.733,13.296l-0.188,0.345c-9.464,-10.592 -18.06,-23.97 -23.625,-34.943c-7.967,-15.742 -27.48,-21.673 -29.44,-41.183c-0.812,-8.057 -13.499,-20.037 -11.49,-22.413c10.162,-12.093 -14.543,-15.526 -5.598,-26.979c0.859,-1.107 -12.983,-1.816 -20.127,-0.658l0.111,-0.398l-0.02,-0.036Z" style="fill:#e7c259;fill-rule:nonzero;"/><path d="M246.167,89.726c-30.019,-41.956 -64.91,-64.472 -115.784,-71.136c18.938,21.371 38.774,35.681 49.746,57.43c1.242,2.456 7.278,3.406 11.127,3.531c16.572,0.462 32.717,3.221 54.875,10.196l0.036,-0.021Z" style="fill:#f0e9d2;fill-rule:nonzero;"/><path d="M399.299,185.868c-0.587,-73.573 -62.413,-91.855 -106.206,-125.663c14.772,17.884 34.417,31.346 46.404,51.756c5.891,10.024 13.718,19.579 16.891,30.465c6.58,22.359 25.065,30.879 42.891,43.405l0.02,0.037Z" style="fill:#f0e9d2;fill-rule:nonzero;"/><path d="M367.682,342.557c-7.058,3.262 -16.067,11.547 -15.27,-5.788c0.081,-1.384 0.668,-3.82 0.307,-3.951c-30.749,-12.032 -1.108,-24.871 -0.823,-36.751c-7.695,3.574 -18.88,12.75 -24.229,4.621c-6.261,-9.576 8.957,-14.569 14.111,-21.972c-8.525,-4.09 -19.603,7.992 -26.319,-3.241c-3.256,-5.435 6.998,-6.337 7.907,-11.681c-8.984,-4.31 -21.631,6.6 -26.803,-4.355c-4.192,-8.878 9.561,-11.802 12.184,-19.451c-17.787,-7.622 -22.283,10.364 -32.459,17.681c11.782,0.196 17.135,16.646 30.754,12.125c-1.566,7.149 5.296,16.434 -12.013,22.893c12.301,-1.004 17.895,-1.432 24.715,-1.977c-3.914,7.564 -4.224,11.087 4.137,16.753c10.023,6.833 6.46,24.436 16.935,33.597c12.347,10.784 20.077,24.746 26.613,39.477c0.714,1.606 1.377,4.055 2.569,4.387c3.029,0.875 5.247,-1.045 6.24,-3.949c2.125,-6.412 4.059,-12.908 6.706,-21.193c-33.752,14.966 -8.459,-12.881 -15.582,-17.283l0.304,0.115l0.016,-0.057Z" style="fill:#e7c259;fill-rule:nonzero;"/><path d="M35.748,101.608c-6.446,-6.936 -12.83,-5.872 -19.231,0.081c-3.227,13.874 7.533,19.383 15.784,26.211c15.163,12.64 34.454,19.366 46.32,37.357c5.831,8.814 20.17,4.891 31.001,3.232c-9.673,-12.914 -19.326,-25.792 -28.999,-38.706c-12.876,-10.534 -27.617,-16.572 -44.177,-18.284c-2.908,-0.322 -7.586,0.882 -7.791,-3.978c-0.173,-4.208 3.878,-4.913 7.13,-5.933l-0.037,0.02Z" style="fill:#e7c259;fill-rule:nonzero;"/><path d="M190.62,122.195c25.694,-1.429 51.408,-2.822 80.08,-4.399c-32.512,-29.071 -70.582,-27.026 -107.603,-28.633c5.657,13.935 20.271,20.427 27.579,33.048l-0.056,-0.016Z" style="fill:#f0e9d2;fill-rule:nonzero;"/><path d="M241.189,144.098c-11.483,-0.939 -21.693,7.592 -33.75,4.872c0.509,-7.749 8.169,-6.041 11.363,-9.708c-3.012,-2.798 -6.061,-5.575 -9.053,-8.337c-12.769,0.599 -25.481,1.214 -39.832,1.892c33.055,38.092 72.359,43.578 126.703,30.778c-17.319,-9.847 -40.16,-3.951 -55.451,-19.533l0.02,0.036Z" style="fill:#e7c259;fill-rule:nonzero;"/><path d="M291.915,182.99c43.718,9.837 84.247,18.938 123.137,35.228c-6.829,-14.996 -19.867,-30.653 -32.106,-29.539c-18.982,1.71 -25.84,-16.474 -42.016,-16.489c-15.711,-0.039 -30.971,-0.379 -49.036,10.764l0.021,0.036Z" style="fill:#f0e9d2;fill-rule:nonzero;"/><path d="M122.81,180.425c-6.8,-0.183 -13.664,-0.905 -20.407,-0.308c-5.703,0.49 -13.609,-4.285 -16.761,2.85c-3.016,6.867 2.85,13.03 6.971,18.217c16.949,21.152 35.538,23.155 70.808,8.338c-11.99,-11.847 -32.476,-11.871 -40.611,-29.097" style="fill:#e7c259;fill-rule:nonzero;"/><path d="M218.168,184.201c0.346,14.442 6.432,19.381 20.512,20.005c21.184,0.922 43.26,-3.107 62.121,14.48c8.981,8.377 13.552,-11.851 24.03,-13.119c-34.083,-11.922 -70.159,-14.397 -106.663,-21.366" style="fill:#f0e9d2;fill-rule:nonzero;"/><path d="M194.2,235.265c32.065,-0.142 64.248,0.606 99.419,-13.199c-33.32,-11.587 -62.993,-9.493 -92.737,-6.593c4.301,8.816 -2.802,13.778 -6.682,19.792Z" style="fill:#f0e9d2;fill-rule:nonzero;"/><path d="M241.189,144.098c15.292,15.582 38.133,9.687 55.452,19.533c10.566,-1.366 21.117,-2.675 35.707,-4.54c-30.554,-22.714 -60.156,-22.955 -91.138,-14.956l-0.021,-0.037Z" style="fill:#f0e9d2;fill-rule:nonzero;"/><path d="M438.89,224.101c10.933,-35.582 -20.664,-49.288 -31.662,-71.931c1.197,26.639 3.875,52.681 31.662,71.931" style="fill:#f0e9d2;fill-rule:nonzero;"/><path d="M234.971,338.366c-7.585,0.546 -14.705,6.666 -18.646,-0.918c-4.29,-8.2 3.996,-11.916 9.227,-16.635c-7.326,-3.236 -19.633,7.004 -21.782,-3.934c-2.22,-11.233 13.361,-11.934 20.21,-21.249c-13.449,1.173 -29.544,-1.327 -33.324,12.667c-3.634,13.577 8.426,25.719 18.738,34.59c10.8,9.313 11.716,8.222 25.614,-4.541l-0.037,0.02Z" style="fill:#e7c259;fill-rule:nonzero;"/><path d="M190.62,122.195c-7.252,-12.605 -21.903,-19.077 -27.58,-33.048c-8.005,-1.896 -16.01,-3.792 -24.108,-5.683c17.099,42.88 18.87,43.221 51.688,38.731" style="fill:#e7c259;fill-rule:nonzero;"/><path d="M194.2,235.265c3.916,-6.035 10.983,-10.976 6.682,-19.792c-21.555,-0.139 -41.526,7.199 -67.084,12.857c22.73,9.857 41.644,7.515 60.402,6.935" style="fill:#e7c259;fill-rule:nonzero;"/><path d="M145.978,347.744c8.897,21.292 24.298,37.577 39.946,53.962c5.472,5.716 6.566,-1.166 7.268,-2.041c2.004,-2.469 4.463,-6.678 -0.828,-8.765c-1.542,-0.613 -3.86,0.789 -5.832,1.279c1.927,-17.111 -19.463,-18.06 -22.154,-31.993c-0.632,-3.327 -13.598,-11.562 -18.526,-11.988l0.09,-0.434l0.036,-0.02Z" style="fill:#e7c259;fill-rule:nonzero;"/><path d="M122.81,180.425c8.171,17.205 28.621,17.25 40.611,29.097l-0.175,-0.141c2.789,-2.433 5.729,-2.225 8.795,-0.606c5.122,-0.926 11.081,0.736 15.462,-5.322c-18.683,-16.253 -39.682,-25.076 -64.708,-22.971l0.015,-0.057Z" style="fill:#f0e9d2;fill-rule:nonzero;"/><path d="M396.767,283.346c-6.01,-0.055 -10.013,7.607 -16.848,4.478l0.054,-0.414c4.721,8.627 -1.48,15.615 -4.706,23.127c12.981,1.051 24.937,1.724 30.416,15.09c1.183,0.146 2.391,0.421 3.51,0.795c1.204,-9.911 24.99,-25.667 -7.561,-27.068c-6.712,-0.281 -3.988,-10.38 -5.221,-16.046l0.356,0.038Z" style="fill:#e7c259;fill-rule:nonzero;"/><path d="M148.177,74.664c6.221,2.04 12.249,6.199 21.107,0.87c-15.579,-16.855 -23.591,-40.99 -51.445,-42.457c8.582,13.099 17.128,26.218 25.709,39.317l-0.288,-0.172c1.665,0.831 3.309,1.626 4.973,2.457l-0.056,-0.015Z" style="fill:#f0e9d2;fill-rule:nonzero;"/><path d="M379.918,287.824c-1.251,-2.643 -5.252,-5.074 -0.289,-8.064c1.649,-0.978 9.241,1.629 3.256,-4.659c-1.89,-1.995 0.032,-6.475 -5.769,-6.074c-21.1,1.517 -29.316,-11.357 -20.023,-30.421l0.341,0.095c-4.983,5.584 -20.613,4.926 -11.554,19.381c0.287,0.509 -6.735,5.616 -10.375,8.577c5.672,5.986 25.176,-8.456 20.358,13.538c10.593,-6.068 13.453,13.51 24.073,7.234l-0.054,0.413l0.036,-0.02Z" style="fill:#e7c259;fill-rule:nonzero;"/><path d="M143.492,72.378c-8.582,-13.099 -17.128,-26.218 -25.709,-39.317l-0.061,0.656c-5.57,1.659 -11.141,3.317 -16.711,4.975c7.542,19.568 18.296,35.078 42.481,33.686Z" style="fill:#e7c259;fill-rule:nonzero;"/><path d="M257.541,418.773c3.806,-2.242 11.279,-3.155 7.909,-9.387c-4.976,-9.248 0.385,-15.859 3.689,-23.318c-6.524,-0.627 -12.082,8.009 -17.74,2.302c-5.401,-5.422 3.775,-11.121 1.796,-17.516c-7.956,3.96 -15.429,5.639 -19.815,-6.382c9.134,13.314 5.534,32.803 24.733,39.198c5.881,1.946 -2.196,9.848 -0.309,15.146l-0.34,-0.095l0.077,0.052Z" style="fill:#e7c259;fill-rule:nonzero;"/><path d="M80.587,129.804c9.673,12.914 19.326,25.791 28.999,38.705c7.358,1.257 14.754,2.922 21.979,-5.218c-17.146,-11.236 -34.044,-22.372 -50.978,-33.487" style="fill:#f0e9d2;fill-rule:nonzero;"/><path d="M227.481,467.771c17.145,-9.38 25.154,7.199 38.892,1.701c-15.902,-4.618 -18.927,-32.379 -46.147,-19.996c6.246,4.036 31.406,-3.263 7.255,18.295" style="fill:#e7c259;fill-rule:nonzero;"/><path d="M227.519,34.852c8.871,20.398 31.664,18.404 46.596,29.023c2.936,-5.482 9.81,-10.937 -2.838,-14.281c-14.842,-3.925 -29.197,-9.702 -43.737,-14.706l-0.021,-0.036Z" style="fill:#faeaf1;fill-rule:nonzero;"/><path d="M279.436,406.619c-11.3,14.742 0.911,25.794 6.14,37.866c1.01,2.301 4.055,3.884 6.934,2.117c2.536,-1.525 3.419,-3.267 0.847,-6.217c-6.845,-7.812 3.002,-13.508 3.193,-22.417c-15.937,10.421 -15.79,-1.62 -17.398,-11.428l0.284,0.079Z" style="fill:#e7c259;fill-rule:nonzero;"/><path d="M247.11,281.679c-0.962,-10.589 -11.742,-8.863 -32.336,5.174c12.654,-2.16 22.551,-3.866 32.447,-5.572l-0.111,0.398Z" style="fill:#e7c259;fill-rule:nonzero;"/><path d="M209.749,130.925c3.012,2.798 6.061,5.575 9.053,8.337c13.818,-3.151 27.614,-6.338 46.228,-10.568c-21.981,-3.439 -38.562,0.41 -55.281,2.231Z" style="fill:#dad8b7;fill-rule:nonzero;"/><path d="M470.414,183.892c1.559,-3.175 3.447,-5.34 3.595,-7.623c0.501,-7.171 8.665,-13.305 2.942,-21.08c-0.482,-0.685 -3.82,0.097 -5.478,0.889c-10.567,5.097 -4.557,14.145 -4.817,21.658c-0.03,1.643 1.94,3.355 3.722,6.177l0.036,-0.021Z" style="fill:#e7c259;fill-rule:nonzero;"/><path d="M101.047,38.671c5.571,-1.658 11.141,-3.316 16.712,-4.974c-1.234,-5.667 -5.406,-12.642 -9.5,-11.673c-7.007,1.655 -9.421,8.996 -7.212,16.647Z" style="fill:#f0e9d2;fill-rule:nonzero;"/><path d="M96.247,78.258c2.267,0.204 4.499,0.429 6.766,0.633c-0.117,-3.856 -2.014,-5.609 -5.899,-4.949c-0.303,1.415 -0.585,2.865 -0.888,4.28l0.021,0.036Z" style="fill:#fefefe;fill-rule:nonzero;"/><path d="M96.247,78.258c2.267,0.204 4.499,0.429 6.766,0.633c-0.117,-3.856 -2.014,-5.609 -5.899,-4.949c-0.303,1.415 -0.585,2.865 -0.888,4.28l0.021,0.036Z" style="fill:#fefefe;fill-rule:nonzero;"/><path d="M172.077,208.755c-3.066,-1.62 -6.005,-1.828 -8.795,0.606c3.172,2.995 5.994,1.213 8.795,-0.606" style="fill:#e7c259;fill-rule:nonzero;"/><path d="M443.649,146.606c0.294,-1.601 0.608,-3.165 0.901,-4.765c-0.89,0.119 -1.779,0.237 -2.685,0.413c0.746,1.493 1.508,2.929 2.254,4.422l-0.47,-0.07Z" style="fill:#e7c259;fill-rule:nonzero;"/><path d="M367.378,342.442c1.531,-1.102 3.062,-2.205 4.613,-3.271c-0.602,-0.474 -1.204,-0.947 -1.862,-1.437c-0.816,1.608 -1.631,3.216 -2.447,4.823l-0.304,-0.115Z" style="fill:#e7c259;fill-rule:nonzero;"/><path d="M405.683,325.627c-1.689,2.435 -1.987,5.808 0.853,6.263c3.387,0.578 1.896,-3.508 2.657,-5.468c-1.12,-0.373 -2.307,-0.613 -3.51,-0.795Z" style="fill:#e7c259;fill-rule:nonzero;"/><path d="M279.152,406.54l2.462,-2.25c-0.707,0.781 -1.471,1.547 -2.178,2.329l-0.284,-0.079Z" style="fill:#e7c259;fill-rule:nonzero;"/><path d="M257.881,418.868c-0.344,0.577 -0.673,1.097 -1.017,1.674c0.231,-0.609 0.446,-1.16 0.677,-1.769l0.34,0.095Z" style="fill:#e7c259;fill-rule:nonzero;"/><path d="M396.411,283.308c0.199,-0.495 0.491,-0.995 0.597,-1.485c0.043,-0.263 -0.27,-0.565 -0.398,-0.876c0.058,0.781 0.099,1.618 0.157,2.399l-0.356,-0.038Z" style="fill:#e7c259;fill-rule:nonzero;"/><path d="M148.177,74.664c-1.665,-0.832 -3.309,-1.627 -4.974,-2.458c1.665,0.831 3.309,1.626 4.974,2.458" style="fill:#e7c259;fill-rule:nonzero;"/><path d="M491.773,230.254c4.032,-2.943 5.491,-5.87 3.381,-9.273c-4.01,-6.349 -8.839,-12.284 -17.216,-11.53c-2.581,0.259 -3.396,4.497 -1.165,6.588c5.089,4.783 7.238,13.091 15.036,14.195l-0.036,0.02Z" style="fill-rule:nonzero;"/></g></svg>