<?xml version="1.0" encoding="UTF-8"?><svg id="Layer_1" xmlns="http://www.w3.org/2000/svg" viewBox="0 0 457.24 109.43"><path d="M44.52,9.21c-.13,5.8-.26,11.66-.26,17.46,0,10.89.26,16.3.26,18.1,0,.9,0,3.03-1.29,3.03-.64,0-1.35-.64-3.16-2.71l-13.34-15.2c-13.01-14.5-14.04-15.72-14.3-15.72-.13,0-.19.19-.26.26-.52,7.54-.84,15.01-.84,22.87v1.87c0,3.35.19,3.99,2.9,4.19.84,0,3.48.32,3.93.45.26.13.84.32.84,1.68,0,.71-.39,1.22-1.1,1.22-.26,0-3.67-.39-7.86-.39s-7.6.39-7.92.39c-.77,0-1.35-.52-1.35-1.29,0-.19.13-1.42.97-1.67,1.42-.45,4.44.06,5.48-2.06.32-.77.26-.58,1.8-30.28v-.26c0-.58-.06-.97-2.13-2.83-.45-.45-2.19-2.51-5.73-2.77-.64,0-1.16-.19-1.16-1.42,0-1.35.58-1.67,1.42-1.67h7.92c1.35,0,1.87.39,2.58,1.22l10.11,11.72,5.86,6.57c11.66,12.63,12.18,13.27,12.63,13.27.39,0,.45-.32.45-.64.06-2.32.13-4.57.13-6.89,0-6.57-.19-12.88-.58-19.2-.13-2.77-1.35-2.83-4.19-3.16-.45-.06-1.42-.26-1.42-1.35,0-.64.45-1.55,1.87-1.55.58,0,2.45.19,6.18.19s5.48-.19,6.06-.19c.71,0,1.35.39,1.35,1.48,0,3.35-5.86-.97-5.86,5.28Z" style="fill:#f7c7dc; stroke-width:0px;"/><path d="M66.16,18.49c7.67,0,13.46,6.06,13.46,14.69,0,9.21-6.51,14.37-13.72,14.37-8.18,0-13.66-6.44-13.66-14.37,0-8.96,6.7-14.69,13.92-14.69ZM75.25,33.44c0-6.89-4.64-11.92-9.53-11.92-3.35,0-8.44,2.71-8.44,11.34,0,6.7,3.54,11.53,8.83,11.53s9.15-5.22,9.15-10.95Z" style="fill:#f7c7dc; stroke-width:0px;"/><path d="M97.02,17.84c.58-.19,1.16-.26,1.87-.26,2.06,0,5.02,1.03,5.02,2.83v.06c-.06,1.09-1.22,1.8-1.74,2.25-.71.45-1.55,1.29-2.64,1.29-1.61,0-1.67-1.61-3.8-1.61s-4.64,2.06-5.02,2.64c-.26.39-.26.71-.26,1.16v15.72c0,.71.06,1.8,1.61,1.93,3.87.32,4.7.06,4.7,1.55,0,.51-.06,1.29-.9,1.29-.19,0-3.03-.39-6.51-.39s-6.38.39-6.57.39c-.64,0-1.03-.45-1.03-1.09,0-1.55,1.16-1.16,2.9-1.61.9-.19,1.16-.58,1.16-1.55v-17.07c0-1.29-.52-1.22-3.54-3.41-.06-.06-.19-.19-.26-.45,0-.32.06-.19,6.76-3.48.19-.06.39-.19.58-.19.71,0,.77.71.77,1.29v2.58c0,.19.06.32.19.32.26,0,4.96-3.54,6.7-4.19Z" style="fill:#f7c7dc; stroke-width:0px;"/><path d="M105.33,21.97c0-1.09,3.22-2.25,6.7-8.18.19-.32.58-1.16,1.29-1.16.39,0,.84.19.84,1.03,0,.9-.06,3.61-.06,4.51,0,1.09.52,1.29,1.29,1.29h5.8c.19,0,.32.06.52.06.58,0,1.67,0,1.67,1.22,0,.39-.26,1.48-.58,1.87-.26.26-.58.32-1.16.32h-7.54c-.45,0-.64.13-.64.58-.06,12.05-.06,13.53-.06,15.08,0,2.25.58,4.77,3.29,4.77,3.09,0,5.6-3.87,7.02-3.87.71,0,1.16.58,1.16,1.16,0,.52-.32.9-.45,1.09-2.25,2.58-5.41,5.8-8.95,5.8-2.58,0-6.06-1.8-6.51-7.86-.06-.71-.06-1.35-.06-2.06,0-2.83.26-12.82.26-14.24,0-.32-.06-.58-.45-.58h-2.06c-.58,0-1.29-.06-1.29-.84Z" style="fill:#f7c7dc; stroke-width:0px;"/><path d="M144.37,45.35c0-1.35.84-1.1,3.67-1.48,1.29-.19,1.29-.71,1.29-5.6,0-9.28-1.48-11.79-3.09-13.53-1.29-1.29-3.16-2.32-5.22-2.32-2.77,0-5.28,1.87-5.6,3.16-.06.26-.06.52-.06.84,0,.39,0,15.46.13,15.91.52,2.77,4.83.71,4.83,3.03,0,.58-.13,1.35-.71,1.35-.19,0-2.77-.39-5.93-.39s-5.86.39-6.06.39c-.77,0-.77-.71-.77-1.29,0-1.1.58-1.03,2.38-1.42,1.48-.26,1.48-1.29,1.55-2.19.19-5.86.32-11.79.32-17.72v-.26c0-5.22-.19-15.4-.26-15.78-.32-1.61-4.57-1.03-4.57-2.71,0-.77.9-1.16,1.03-1.22,6.89-3.99,6.96-4.12,7.41-4.12h.06c.39,0,.97.19.97,1.22l-.06,19.84c0,.39.19.45.32.45.39,0,3.22-2.38,7.6-2.38s7.15,2.45,8.63,5.86c1.29,3.03,1.61,5.02,1.87,17.07,0,1.8.77,1.87,2.38,2.06.52.06,1.1.26,1.1,1.16,0,1.16-.32,1.42-.84,1.42-.19,0-2.64-.39-5.86-.39s-5.6.39-5.8.39c-.58,0-.71-.45-.71-.9v-.45Z" style="fill:#f7c7dc; stroke-width:0px;"/><path d="M189.21,32.47c0,8.57-6.38,14.3-15.33,14.3-2.19,0-3.99-.39-4.12-.39-.39,0-.45.26-.45.71v9.02c0,.64.06,1.55,1.42,1.67,3.87.39,5.15,0,5.15,2,0,.51-.19.97-.77.97s-2.45-.26-6.06-.26c-4.7,0-8.25.52-8.57.52-.39,0-1.03-.19-1.03-1.29,0-1.16.77-1.03,3.74-1.67,1.03-.19,1.42-.71,1.42-1.8v-29.89c0-.32-.06-.97-.84-1.29-4.19-1.87-4.32-1.8-4.32-2.25v-.06c0-.39.13-.32,6.89-4.32.64-.32.77-.52,1.09-.52.39,0,.52.32.52.71v3.8c0,.19.06.39.19.39.32,0,2.38-3.48,7.41-4.19.51-.06.97-.06,1.48-.06,7.15,0,12.18,6.44,12.18,13.92ZM184.89,33.76c0-6.25-4.83-11.4-9.99-11.4-.84,0-2.58.06-4.25,1.35-1.42,1.03-1.87,2.13-1.87,3.99v13.85c0,.58,0,1.22,1.67,2,1.29.64,2.77,1.03,4.25,1.03,5.22,0,10.18-4.38,10.18-10.82Z" style="fill:#f7c7dc; stroke-width:0px;"/><path d="M205.7,18.49c7.67,0,13.46,6.06,13.46,14.69,0,9.21-6.51,14.37-13.72,14.37-8.18,0-13.66-6.44-13.66-14.37,0-8.96,6.7-14.69,13.92-14.69ZM214.79,33.44c0-6.89-4.64-11.92-9.53-11.92-3.35,0-8.44,2.71-8.44,11.34,0,6.7,3.54,11.53,8.83,11.53s9.15-5.22,9.15-10.95Z" style="fill:#f7c7dc; stroke-width:0px;"/><path d="M236.56,17.84c.58-.19,1.16-.26,1.87-.26,2.06,0,5.02,1.03,5.02,2.83v.06c-.06,1.09-1.22,1.8-1.74,2.25-.71.45-1.55,1.29-2.64,1.29-1.61,0-1.67-1.61-3.8-1.61s-4.64,2.06-5.02,2.64c-.26.39-.26.71-.26,1.16v15.72c0,.71.06,1.8,1.61,1.93,3.87.32,4.7.06,4.7,1.55,0,.51-.06,1.29-.9,1.29-.19,0-3.03-.39-6.51-.39s-6.38.39-6.57.39c-.64,0-1.03-.45-1.03-1.09,0-1.55,1.16-1.16,2.9-1.61.9-.19,1.16-.58,1.16-1.55v-17.07c0-1.29-.52-1.22-3.54-3.41-.06-.06-.19-.19-.26-.45,0-.32.06-.19,6.76-3.48.19-.06.39-.19.58-.19.71,0,.77.71.77,1.29v2.58c0,.19.06.32.19.32.26,0,4.96-3.54,6.7-4.19Z" style="fill:#f7c7dc; stroke-width:0px;"/><path d="M244.87,21.97c0-1.09,3.22-2.25,6.7-8.18.19-.32.58-1.16,1.29-1.16.39,0,.84.19.84,1.03,0,.9-.06,3.61-.06,4.51,0,1.09.52,1.29,1.29,1.29h5.8c.19,0,.32.06.52.06.58,0,1.67,0,1.67,1.22,0,.39-.26,1.48-.58,1.87-.26.26-.58.32-1.16.32h-7.54c-.45,0-.64.13-.64.58-.06,12.05-.06,13.53-.06,15.08,0,2.25.58,4.77,3.29,4.77,3.09,0,5.6-3.87,7.02-3.87.71,0,1.16.58,1.16,1.16,0,.52-.32.9-.45,1.09-2.25,2.58-5.41,5.8-8.96,5.8-2.58,0-6.06-1.8-6.51-7.86-.06-.71-.06-1.35-.06-2.06,0-2.83.26-12.82.26-14.24,0-.32-.06-.58-.45-.58h-2.06c-.58,0-1.29-.06-1.29-.84Z" style="fill:#f7c7dc; stroke-width:0px;"/><path d="M326.24,9.21c-.13,5.8-.26,11.66-.26,17.46,0,10.89.26,16.3.26,18.1,0,.9,0,3.03-1.29,3.03-.64,0-1.35-.64-3.16-2.71l-13.34-15.2c-13.01-14.5-14.04-15.72-14.3-15.72-.13,0-.19.19-.26.26-.52,7.54-.84,15.01-.84,22.87v1.87c0,3.35.19,3.99,2.9,4.19.84,0,3.48.32,3.93.45.26.13.84.32.84,1.68,0,.71-.39,1.22-1.09,1.22-.26,0-3.67-.39-7.86-.39s-7.6.39-7.92.39c-.77,0-1.35-.52-1.35-1.29,0-.19.13-1.42.97-1.67,1.42-.45,4.44.06,5.48-2.06.32-.77.26-.58,1.8-30.28v-.26c0-.58-.06-.97-2.13-2.83-.45-.45-2.19-2.51-5.73-2.77-.64,0-1.16-.19-1.16-1.42,0-1.35.58-1.67,1.42-1.67h7.92c1.35,0,1.87.39,2.58,1.22l10.11,11.72,5.86,6.57c11.66,12.63,12.18,13.27,12.63,13.27.39,0,.45-.32.45-.64.06-2.32.13-4.57.13-6.89,0-6.57-.19-12.88-.58-19.2-.13-2.77-1.35-2.83-4.19-3.16-.45-.06-1.42-.26-1.42-1.35,0-.64.45-1.55,1.87-1.55.58,0,2.45.19,6.18.19s5.48-.19,6.06-.19c.71,0,1.35.39,1.35,1.48,0,3.35-5.86-.97-5.86,5.28Z" style="fill:#f7c7dc; stroke-width:0px;"/><path d="M344.41,18.36c2.45,0,8.7.77,9.34,7.09.06.77.13,1.55.13,2.32v12.69c0,2.51,1.55,2.83,2.19,2.83,2,0,1.87-2.13,2.83-2.13.26,0,.58.26.58.84,0,1.48-1.61,5.09-4.96,5.09-2.9,0-4.45-2.58-4.57-2.64-.06,0-.06-.06-.13-.06-.32,0-.13.32-1.74,1.42-1.48.97-3.61,1.8-5.99,1.8-4.45,0-7.34-3.29-7.34-7.22v-.06c0-2.45,1.16-4.51,2.71-5.73,3.48-2.77,11.21-3.03,11.34-3.09.45-.13.52-.45.52-.9v-2.32c0-2.06-.26-3.67-1.55-5.15-.77-.84-2.06-1.74-3.74-1.74-3.67,0-5.41,4.06-5.54,4.32-.19.26-.58.71-1.42.71-1.22,0-2.58-.84-2.58-2.32,0-2.32,4.57-5.73,9.92-5.73ZM348.98,41.42c.32-.45.39-.9.39-1.48v-4.19c0-1.55-.06-1.87-.64-1.87-1.16,0-5.54.32-7.67,2.32-.84.71-1.55,1.87-1.55,3.48,0,1.03.32,2.64,1.35,3.54.77.71,1.93.84,2.77.84,3.16,0,5.03-2.19,5.35-2.64Z" style="fill:#f7c7dc; stroke-width:0px;"/><path d="M361.16,21.97c0-1.09,3.22-2.25,6.7-8.18.19-.32.58-1.16,1.29-1.16.39,0,.84.19.84,1.03,0,.9-.06,3.61-.06,4.51,0,1.09.52,1.29,1.29,1.29h5.8c.19,0,.32.06.52.06.58,0,1.67,0,1.67,1.22,0,.39-.26,1.48-.58,1.87-.26.26-.58.32-1.16.32h-7.54c-.45,0-.64.13-.64.58-.06,12.05-.06,13.53-.06,15.08,0,2.25.58,4.77,3.29,4.77,3.09,0,5.6-3.87,7.02-3.87.71,0,1.16.58,1.16,1.16,0,.52-.32.9-.45,1.09-2.25,2.58-5.41,5.8-8.96,5.8-2.58,0-6.06-1.8-6.51-7.86-.06-.71-.06-1.35-.06-2.06,0-2.83.26-12.82.26-14.24,0-.32-.06-.58-.45-.58h-2.06c-.58,0-1.29-.06-1.29-.84Z" style="fill:#f7c7dc; stroke-width:0px;"/><path d="M387.44,26.09c0-1.03-.26-.97-4.38-2.64-.32-.13-.77-.32-.77-.84,0-.77,1.03-1.03,1.74-1.35,6.7-3.22,6.76-3.35,7.09-3.35h.06c.39,0,.9.26.9,1.03,0,.51-.39,6.76-.39,14.62v2.13c0,7.86.06,8.05,1.48,8.25,2.13.32,2.9.26,2.9,1.35,0,.52-.06,1.42-.77,1.42-.19,0-2.77-.39-5.93-.39s-5.73.39-5.93.39c-.64,0-.97-.45-.97-1.09,0-1.48.26-1.35,3.16-1.74,1.61-.26,1.74-1.16,1.74-2.32v-3.03c0-7.47.06-11.21.06-12.43ZM391.11,3.48c1.68,0,3.09,1.35,3.09,2.96,0,1.74-1.48,3.09-3.16,3.09s-3.03-1.29-3.03-3.03,1.42-3.03,3.09-3.03Z" style="fill:#f7c7dc; stroke-width:0px;"/><path d="M416.17,20.49c0-.45.19-.9.77-.9.52,0,2.06.19,5.15.19s4.64-.19,5.15-.19c.77,0,.97.58.97,1.22,0,2.13-2.71.51-3.54,1.93-.19.39-.19.51-.39,1.29-3.35,12.18-8.57,22.48-9.34,23.32-.26.32-.71.58-1.22.58-.97,0-1.55-.9-2.13-2-8.25-14.62-10.57-21.84-11.47-23-1.29-1.61-3.03,0-3.03-2.51,0-.52.26-.84.77-.84.64,0,2.45.19,6.12.19s5.54-.19,6.18-.19c.77,0,.9.58.9,1.29,0,1.61-1.42.97-3.61,1.35-.77.06-1.29.52-1.29,1.16,0,.84,3.09,9.47,7.67,17.33.06.06.26.52.58.52.19,0,.32-.26.32-.32,4.9-8.57,6.18-16.69,6.18-17.72,0-1.22-1.35-1.09-3.8-1.29-.32-.06-.97-.06-.97-1.09v-.32Z" style="fill:#f7c7dc; stroke-width:0px;"/><path d="M441.88,18.55c4.45,0,8.7,2.9,11.08,6.18.26.32.52.84.52,1.42v.06c0,1.93-3.35,2.58-5.22,3.22-13.34,4.57-13.72,4.51-13.72,5.09,0,.77,1.42,9.34,9.54,9.34,2.83,0,5.67-1.22,7.67-3.16.32-.32.84-.9,1.48-.9.58,0,1.03.39,1.03.97,0,.26-.13.64-.45,1.03-2.64,3.42-6.83,5.73-11.4,5.73-5.28,0-12.43-3.48-12.43-14.5,0-9.02,5.48-14.5,11.92-14.5ZM440.46,22.1c-3.74,0-6.18,3.48-6.18,9.21,0,.39.19.45.32.45.19,0,11.92-4.57,12.05-4.64.39-.19.58-.52.58-.77,0-.77-3.16-4.25-6.76-4.25Z" style="fill:#f7c7dc; stroke-width:0px;"/><path d="M29.67,84.82c0-13.08,9.79-22.68,21.65-22.68,7.67,0,12.3,3.99,13.08,4.19h.26c1.22,0,2.13-2.13,2.83-2.51.19-.13.45-.19.77-.19.45,0,.9.19.9.9v1.74c0,6.57.71,11.66.71,11.92,0,.64-.45,1.03-1.87,1.03-2.06,0-.26-2.06-3.48-6.51-3.16-4.32-8.38-7.47-13.98-7.47-6.51,0-14.43,4.77-14.43,18.75,0,17.01,10.11,21.78,16.81,21.78,5.54,0,10.05-3.09,10.63-4.19.19-.39.19-.77.19-1.1v-7.28c0-2.13-1.35-1.87-6.06-2.32-.77-.06-1.8-.32-1.8-1.48,0-.77.45-1.48,1.42-1.48.71,0,2.64.26,6.64.26h.13c4.12,0,6.25-.26,6.89-.26,1.22,0,1.67.77,1.67,1.35,0,2-3.03,1.35-3.41,2.96-.06.19-.06.39-.06.64v10.89c0,.71-.19,1.29-.9,1.29-.77,0-1.35-1.35-1.93-1.35-.39,0-.71.32-.9.51-3.99,3.48-8.89,4.96-13.21,4.96-12.05,0-22.55-10.82-22.55-24.35Z" style="fill:#f7c7dc; stroke-width:0px;"/><path d="M84.94,79.67c2.45,0,8.7.77,9.34,7.09.06.77.13,1.55.13,2.32v12.69c0,2.51,1.55,2.83,2.19,2.83,2,0,1.87-2.13,2.83-2.13.26,0,.58.26.58.84,0,1.48-1.61,5.09-4.96,5.09-2.9,0-4.45-2.58-4.57-2.64-.06,0-.06-.06-.13-.06-.32,0-.13.32-1.74,1.42-1.48.97-3.61,1.8-5.99,1.8-4.45,0-7.34-3.29-7.34-7.21v-.06c0-2.45,1.16-4.51,2.71-5.73,3.48-2.77,11.21-3.03,11.34-3.09.45-.13.52-.45.52-.9v-2.32c0-2.06-.26-3.67-1.55-5.15-.77-.84-2.06-1.74-3.74-1.74-3.67,0-5.41,4.06-5.54,4.32-.19.26-.58.71-1.42.71-1.22,0-2.58-.84-2.58-2.32,0-2.32,4.57-5.73,9.92-5.73ZM89.52,102.73c.32-.45.39-.9.39-1.48v-4.19c0-1.55-.06-1.87-.64-1.87-1.16,0-5.54.32-7.67,2.32-.84.71-1.55,1.87-1.55,3.48,0,1.03.32,2.64,1.35,3.54.77.71,1.93.84,2.77.84,3.16,0,5.02-2.19,5.35-2.64Z" style="fill:#f7c7dc; stroke-width:0px;"/><path d="M116.45,79.15c.58-.19,1.16-.26,1.87-.26,2.06,0,5.02,1.03,5.02,2.83v.06c-.06,1.1-1.22,1.8-1.74,2.25-.71.45-1.55,1.29-2.64,1.29-1.61,0-1.67-1.61-3.8-1.61s-4.64,2.06-5.02,2.64c-.26.39-.26.71-.26,1.16v15.72c0,.71.06,1.8,1.61,1.93,3.87.32,4.7.06,4.7,1.55,0,.52-.06,1.29-.9,1.29-.19,0-3.03-.39-6.51-.39s-6.38.39-6.57.39c-.64,0-1.03-.45-1.03-1.1,0-1.55,1.16-1.16,2.9-1.61.9-.19,1.16-.58,1.16-1.55v-17.07c0-1.29-.52-1.22-3.54-3.41-.06-.06-.19-.19-.26-.45,0-.32.06-.19,6.76-3.48.19-.06.39-.19.58-.19.71,0,.77.71.77,1.29v2.58c0,.19.06.32.19.32.26,0,4.96-3.54,6.7-4.19Z" style="fill:#f7c7dc; stroke-width:0px;"/><path d="M145.89,81.34c.32,0,.45-.26.45-.58v-10.82c0-1.29-.45-1.29-3.87-2.64-.45-.13-1.22-.39-1.22-1.03,0-.39.39-.58.58-.71,6.83-3.35,8.05-3.93,8.31-3.93.52,0,.77.39.77.9,0,2.13-.19,8.38-.19,20.87,0,6.38.13,18.36.19,18.94.06.97.71.77,3.03.9.06,0,1.22,0,1.22.9,0,.97-1.22.97-3.8,2.45-2.96,1.61-3.8,2.83-4.45,2.83-.19,0-.52-.06-.52-.64v-2.13c0-.13-.06-.19-.13-.19-.19,0-2.64,2.51-7.67,2.51-8.44,0-14.04-6.57-14.04-14.69,0-6.7,4.12-13.92,14.3-13.92h.06c4.19,0,6.64.97,6.96.97ZM128.88,93.71c0,7.99,6.76,11.92,11.21,11.92,2.45,0,5.54-1.1,6.06-2.77.13-.52.19-.97.19-1.48v-14.43c0-.45,0-.9-.64-1.55-1.93-1.8-4.51-2.45-6.89-2.45-6.57,0-9.92,4.25-9.92,10.76Z" style="fill:#f7c7dc; stroke-width:0px;"/><path d="M168.63,79.86c4.45,0,8.7,2.9,11.08,6.18.26.32.52.84.52,1.42v.06c0,1.93-3.35,2.58-5.22,3.22-13.34,4.57-13.72,4.51-13.72,5.09,0,.77,1.42,9.34,9.53,9.34,2.83,0,5.67-1.22,7.67-3.16.32-.32.84-.9,1.48-.9.58,0,1.03.39,1.03.97,0,.26-.13.64-.45,1.03-2.64,3.41-6.83,5.73-11.4,5.73-5.28,0-12.43-3.48-12.43-14.5,0-9.02,5.48-14.5,11.92-14.5ZM167.21,83.41c-3.74,0-6.18,3.48-6.18,9.21,0,.39.19.45.32.45.19,0,11.92-4.57,12.05-4.64.39-.19.58-.52.58-.77,0-.77-3.16-4.25-6.76-4.25Z" style="fill:#f7c7dc; stroke-width:0px;"/><path d="M190.92,83.6h.06c.26,0,3.29-3.8,8.83-3.87h.13c2.9,0,8.5,1.29,9.15,9.28.13,1.09.13,2.19.13,3.29s-.06,2.25-.06,11.15v.13c0,1.8.84,1.67,3.09,2,.84.13.9.71.9,1.16,0,1.1-.58,1.29-.97,1.29-.58,0-2.19-.39-5.41-.39-2.83,0-5.15.39-5.28.39-.77,0-.9-.64-.9-1.29,0-1.16.77-1.03,3.35-1.48.84-.13,1.03-.45,1.03-1.55v-9.99c0-1.16-.06-5.03-.84-6.96-1.42-3.29-4.96-3.87-6.44-3.87-3.74,0-6.38,3.03-6.64,4.19-.06.26-.06.58-.06.84v15.46c0,.71.06,1.61,1.42,1.8,2.71.45,3.48.32,3.48,1.74,0,.64-.26,1.16-.84,1.16-.19,0-2.83-.45-5.99-.45s-5.48.39-5.67.39c-.39,0-1.03-.26-1.03-1.16,0-1.29.52-1.22,2.51-1.55,1.61-.26,1.67-1.1,1.67-2.19v-15.4c0-1.55,0-1.42-2.9-3.61-.19-.19-.39-.39-.39-.64v-.06c0-.52.13-.45,6.12-3.67.19-.13.39-.26.64-.26.58,0,.77.45.77.97v2.51c0,.13-.06.32-.06.39,0,.19.13.26.19.26Z" style="fill:#f7c7dc; stroke-width:0px;"/><path d="M240.65,64.14c4.06,0,6.06-.26,6.7-.26.52,0,1.09.19,1.09,1.22,0,1.93-.77,1.74-4.06,2.06-.9.06-1.03.58-1.03,1.1v34.79c0,.64,0,1.48,1.16,1.61,3.61.26,5.09-.06,5.09,1.48,0,.77-.19,1.87-1.29,1.87-.26,0-3.8-.39-8.18-.39s-7.99.39-8.25.39c-.97,0-1.03-.77-1.09-1.48-.06-.19-.06-.39-.06-.58,0-1.35.9-1.1,5.41-1.42,1.16-.06,1.35-.71,1.35-1.8v-33.5c0-.39.06-.71.06-.9,0-1.35-.9-1.16-4.25-1.35-.77-.06-1.48-.26-1.48-1.35,0-.77.32-1.8,1.42-1.8.26,0,3.41.32,7.41.32Z" style="fill:#f7c7dc; stroke-width:0px;"/><path d="M259.98,83.6h.06c.26,0,3.29-3.8,8.83-3.87h.13c2.9,0,8.5,1.29,9.15,9.28.13,1.09.13,2.19.13,3.29s-.06,2.25-.06,11.15v.13c0,1.8.84,1.67,3.09,2,.84.13.9.71.9,1.16,0,1.1-.58,1.29-.97,1.29-.58,0-2.19-.39-5.41-.39-2.83,0-5.15.39-5.28.39-.77,0-.9-.64-.9-1.29,0-1.16.77-1.03,3.35-1.48.84-.13,1.03-.45,1.03-1.55v-9.99c0-1.16-.06-5.03-.84-6.96-1.42-3.29-4.96-3.87-6.44-3.87-3.74,0-6.38,3.03-6.63,4.19-.06.26-.06.58-.06.84v15.46c0,.71.06,1.61,1.42,1.8,2.71.45,3.48.32,3.48,1.74,0,.64-.26,1.16-.84,1.16-.19,0-2.83-.45-5.99-.45s-5.48.39-5.67.39c-.39,0-1.03-.26-1.03-1.16,0-1.29.52-1.22,2.51-1.55,1.61-.26,1.67-1.1,1.67-2.19v-15.4c0-1.55,0-1.42-2.9-3.61-.19-.19-.39-.39-.39-.64v-.06c0-.52.13-.45,6.12-3.67.19-.13.39-.26.64-.26.58,0,.77.45.77.97v2.51c0,.13-.06.32-.06.39,0,.19.13.26.19.26Z" style="fill:#f7c7dc; stroke-width:0px;"/><path d="M288.97,87.4c0-1.03-.26-.97-4.38-2.64-.32-.13-.77-.32-.77-.84,0-.77,1.03-1.03,1.74-1.35,6.7-3.22,6.76-3.35,7.09-3.35h.06c.39,0,.9.26.9,1.03,0,.52-.39,6.76-.39,14.62v2.13c0,7.86.06,8.05,1.48,8.25,2.13.32,2.9.26,2.9,1.35,0,.52-.06,1.42-.77,1.42-.19,0-2.77-.39-5.93-.39s-5.73.39-5.93.39c-.64,0-.97-.45-.97-1.1,0-1.48.26-1.35,3.16-1.74,1.61-.26,1.74-1.16,1.74-2.32v-3.03c0-7.47.06-11.21.06-12.43ZM292.64,64.79c1.68,0,3.09,1.35,3.09,2.96,0,1.74-1.48,3.09-3.16,3.09s-3.03-1.29-3.03-3.03,1.42-3.03,3.09-3.03Z" style="fill:#f7c7dc; stroke-width:0px;"/><path d="M299.79,83.28c0-1.1,3.22-2.25,6.7-8.18.19-.32.58-1.16,1.29-1.16.39,0,.84.19.84,1.03,0,.9-.06,3.61-.06,4.51,0,1.1.52,1.29,1.29,1.29h5.8c.19,0,.32.06.52.06.58,0,1.67,0,1.67,1.22,0,.39-.26,1.48-.58,1.87-.26.26-.58.32-1.16.32h-7.54c-.45,0-.64.13-.64.58-.06,12.05-.06,13.53-.06,15.08,0,2.25.58,4.77,3.29,4.77,3.09,0,5.6-3.87,7.02-3.87.71,0,1.16.58,1.16,1.16,0,.51-.32.9-.45,1.09-2.25,2.58-5.41,5.8-8.96,5.8-2.58,0-6.06-1.8-6.51-7.86-.06-.71-.06-1.35-.06-2.06,0-2.83.26-12.82.26-14.24,0-.32-.06-.58-.45-.58h-2.06c-.58,0-1.29-.06-1.29-.84Z" style="fill:#f7c7dc; stroke-width:0px;"/><path d="M326.08,87.4c0-1.03-.26-.97-4.38-2.64-.32-.13-.77-.32-.77-.84,0-.77,1.03-1.03,1.74-1.35,6.7-3.22,6.76-3.35,7.09-3.35h.06c.39,0,.9.26.9,1.03,0,.52-.39,6.76-.39,14.62v2.13c0,7.86.06,8.05,1.48,8.25,2.13.32,2.9.26,2.9,1.35,0,.52-.06,1.42-.77,1.42-.19,0-2.77-.39-5.93-.39s-5.73.39-5.93.39c-.64,0-.97-.45-.97-1.1,0-1.48.26-1.35,3.16-1.74,1.61-.26,1.74-1.16,1.74-2.32v-3.03c0-7.47.06-11.21.06-12.43ZM329.75,64.79c1.68,0,3.09,1.35,3.09,2.96,0,1.74-1.48,3.09-3.16,3.09s-3.03-1.29-3.03-3.03,1.42-3.03,3.09-3.03Z" style="fill:#f7c7dc; stroke-width:0px;"/><path d="M347.4,79.67c2.45,0,8.7.77,9.34,7.09.06.77.13,1.55.13,2.32v12.69c0,2.51,1.55,2.83,2.19,2.83,2,0,1.87-2.13,2.83-2.13.26,0,.58.26.58.84,0,1.48-1.61,5.09-4.96,5.09-2.9,0-4.45-2.58-4.57-2.64-.06,0-.06-.06-.13-.06-.32,0-.13.32-1.74,1.42-1.48.97-3.61,1.8-5.99,1.8-4.45,0-7.34-3.29-7.34-7.21v-.06c0-2.45,1.16-4.51,2.71-5.73,3.48-2.77,11.21-3.03,11.34-3.09.45-.13.52-.45.52-.9v-2.32c0-2.06-.26-3.67-1.55-5.15-.77-.84-2.06-1.74-3.74-1.74-3.67,0-5.41,4.06-5.54,4.32-.19.26-.58.71-1.42.71-1.22,0-2.58-.84-2.58-2.32,0-2.32,4.57-5.73,9.92-5.73ZM351.98,102.73c.32-.45.39-.9.39-1.48v-4.19c0-1.55-.06-1.87-.64-1.87-1.16,0-5.54.32-7.67,2.32-.84.71-1.55,1.87-1.55,3.48,0,1.03.32,2.64,1.35,3.54.77.71,1.93.84,2.77.84,3.16,0,5.03-2.19,5.35-2.64Z" style="fill:#f7c7dc; stroke-width:0px;"/><path d="M364.15,83.28c0-1.1,3.22-2.25,6.7-8.18.19-.32.58-1.16,1.29-1.16.39,0,.84.19.84,1.03,0,.9-.06,3.61-.06,4.51,0,1.1.52,1.29,1.29,1.29h5.8c.19,0,.32.06.52.06.58,0,1.67,0,1.67,1.22,0,.39-.26,1.48-.58,1.87-.26.26-.58.32-1.16.32h-7.54c-.45,0-.64.13-.64.58-.06,12.05-.06,13.53-.06,15.08,0,2.25.58,4.77,3.29,4.77,3.09,0,5.6-3.87,7.02-3.87.71,0,1.16.58,1.16,1.16,0,.51-.32.9-.45,1.09-2.25,2.58-5.41,5.8-8.95,5.8-2.58,0-6.06-1.8-6.51-7.86-.06-.71-.06-1.35-.06-2.06,0-2.83.26-12.82.26-14.24,0-.32-.06-.58-.45-.58h-2.06c-.58,0-1.29-.06-1.29-.84Z" style="fill:#f7c7dc; stroke-width:0px;"/><path d="M390.44,87.4c0-1.03-.26-.97-4.38-2.64-.32-.13-.77-.32-.77-.84,0-.77,1.03-1.03,1.74-1.35,6.7-3.22,6.76-3.35,7.09-3.35h.06c.39,0,.9.26.9,1.03,0,.52-.39,6.76-.39,14.62v2.13c0,7.86.06,8.05,1.48,8.25,2.13.32,2.9.26,2.9,1.35,0,.52-.06,1.42-.77,1.42-.19,0-2.77-.39-5.93-.39s-5.73.39-5.93.39c-.64,0-.97-.45-.97-1.1,0-1.48.26-1.35,3.16-1.74,1.61-.26,1.74-1.16,1.74-2.32v-3.03c0-7.47.06-11.21.06-12.43ZM394.11,64.79c1.68,0,3.09,1.35,3.09,2.96,0,1.74-1.48,3.09-3.16,3.09s-3.03-1.29-3.03-3.03,1.42-3.03,3.09-3.03Z" style="fill:#f7c7dc; stroke-width:0px;"/><path d="M419.17,81.79c0-.45.19-.9.77-.9.52,0,2.06.19,5.15.19s4.64-.19,5.15-.19c.77,0,.97.58.97,1.22,0,2.13-2.71.52-3.54,1.93-.19.39-.19.52-.39,1.29-3.35,12.18-8.57,22.48-9.34,23.32-.26.32-.71.58-1.22.58-.97,0-1.55-.9-2.13-2-8.25-14.62-10.57-21.84-11.47-23-1.29-1.61-3.03,0-3.03-2.51,0-.51.26-.84.77-.84.64,0,2.45.19,6.12.19s5.54-.19,6.18-.19c.77,0,.9.58.9,1.29,0,1.61-1.42.97-3.61,1.35-.77.06-1.29.52-1.29,1.16,0,.84,3.09,9.47,7.67,17.33.06.06.26.52.58.52.19,0,.32-.26.32-.32,4.9-8.57,6.18-16.69,6.18-17.72,0-1.22-1.35-1.09-3.8-1.29-.32-.06-.97-.06-.97-1.1v-.32Z" style="fill:#f7c7dc; stroke-width:0px;"/><path d="M444.87,79.86c4.45,0,8.7,2.9,11.08,6.18.26.32.52.84.52,1.42v.06c0,1.93-3.35,2.58-5.22,3.22-13.34,4.57-13.72,4.51-13.72,5.09,0,.77,1.42,9.34,9.54,9.34,2.83,0,5.67-1.22,7.67-3.16.32-.32.84-.9,1.48-.9.58,0,1.03.39,1.03.97,0,.26-.13.64-.45,1.03-2.64,3.41-6.83,5.73-11.4,5.73-5.28,0-12.43-3.48-12.43-14.5,0-9.02,5.48-14.5,11.92-14.5ZM443.46,83.41c-3.74,0-6.18,3.48-6.18,9.21,0,.39.19.45.32.45.19,0,11.92-4.57,12.05-4.64.39-.19.58-.52.58-.77,0-.77-3.16-4.25-6.76-4.25Z" style="fill:#f7c7dc; stroke-width:0px;"/></svg>